<?xml version="1.0" standalone="no"?>
<!DOCTYPE svg PUBLIC "-//W3C//DTD SVG 20010904//EN"
 "http://www.w3.org/TR/2001/REC-SVG-20010904/DTD/svg10.dtd">
<svg version="1.0" xmlns="http://www.w3.org/2000/svg"
 width="64.000000pt" height="64.000000pt" viewBox="0 0 64.000000 64.000000"
 preserveAspectRatio="xMidYMid meet">

<g transform="translate(0.000000,64.000000) scale(0.100000,-0.100000)"
fill="#000000" stroke="none">
<path d="M290 590 c0 -5 5 -10 10 -10 6 0 10 -9 10 -20 0 -14 -7 -20 -24 -20
-13 0 -31 -3 -39 -6 -19 -7 -32 27 -15 38 10 6 9 8 -3 8 -8 0 -24 -7 -35 -16
-16 -13 -16 -15 -1 -10 9 3 17 4 17 2 0 -3 2 -11 5 -18 3 -8 -7 -23 -24 -36
-35 -26 -65 -20 -55 10 8 26 -11 16 -27 -14 -8 -15 -8 -19 0 -13 7 4 18 2 26
-5 11 -9 10 -17 -7 -46 -22 -38 -56 -44 -50 -9 6 33 -16 4 -22 -30 -4 -16 -3
-24 0 -17 10 22 44 14 44 -10 -1 -61 -27 -88 -49 -50 -10 16 -10 15 -10 -3 0
-11 4 -29 9 -40 7 -17 9 -17 9 -2 2 33 36 19 48 -20 13 -43 8 -57 -18 -50 -22
6 -23 3 -8 -26 l12 -21 8 22 c11 29 20 28 54 -8 23 -24 26 -32 16 -44 -7 -8
-20 -12 -29 -9 -9 3 -5 -4 10 -15 29 -25 46 -29 29 -8 -8 10 -8 16 3 25 21 17
85 -15 79 -40 -3 -11 -11 -15 -21 -12 -9 4 -13 2 -9 -4 4 -6 21 -13 38 -15 27
-4 30 -3 15 7 -27 20 -10 42 34 42 44 0 61 -22 34 -42 -15 -10 -12 -11 15 -7
17 2 34 9 38 15 4 6 0 8 -9 4 -10 -3 -18 1 -21 13 -6 25 70 62 83 40 5 -9 5
-20 -2 -27 -17 -20 1 -15 30 9 15 11 19 18 10 15 -9 -3 -22 1 -29 9 -10 12 -7
20 16 44 34 36 43 37 54 8 l8 -22 12 21 c15 29 14 32 -8 26 -26 -7 -31 7 -18
50 12 39 46 53 48 20 0 -15 2 -15 9 2 5 11 9 29 9 40 0 18 0 19 -10 3 -22 -38
-48 -11 -49 50 0 24 34 32 44 10 3 -7 4 1 0 17 -6 34 -28 63 -22 30 6 -35 -28
-29 -50 9 -17 29 -18 37 -7 46 8 7 19 9 26 5 8 -6 8 -2 0 13 -17 31 -31 36
-28 10 3 -31 -22 -33 -56 -5 -30 25 -29 60 1 51 13 -5 13 -2 -2 10 -11 9 -27
16 -35 16 -12 0 -13 -2 -3 -8 17 -11 4 -45 -15 -38 -8 3 -26 6 -39 6 -17 0
-24 6 -24 20 0 11 5 20 10 20 6 0 10 5 10 10 0 6 -13 10 -30 10 -16 0 -30 -4
-30 -10z m127 -83 c144 -76 153 -271 16 -365 -33 -24 -48 -27 -115 -27 -69 0
-80 3 -118 31 -103 74 -121 222 -39 316 59 68 175 88 256 45z"/>
<path d="M226 465 c4 -8 8 -15 10 -15 2 0 4 7 4 15 0 8 -4 15 -10 15 -5 0 -7
-7 -4 -15z"/>
<path d="M296 464 c-9 -8 -16 -19 -16 -24 0 -11 29 -40 40 -40 11 0 40 29 40
40 0 11 -29 40 -40 40 -5 0 -16 -7 -24 -16z m44 -24 c0 -13 -7 -20 -20 -20
-13 0 -20 7 -20 20 0 13 7 20 20 20 13 0 20 -7 20 -20z"/>
<path d="M396 465 c-3 -8 -1 -15 3 -15 5 0 11 7 15 15 3 8 1 15 -3 15 -5 0
-11 -7 -15 -15z"/>
<path d="M196 404 c-9 -8 -16 -19 -16 -24 0 -11 29 -40 40 -40 11 0 40 29 40
40 0 11 -29 40 -40 40 -5 0 -16 -7 -24 -16z m44 -24 c0 -13 -7 -20 -20 -20
-13 0 -20 7 -20 20 0 13 7 20 20 20 13 0 20 -7 20 -20z"/>
<path d="M396 404 c-9 -8 -16 -19 -16 -24 0 -11 29 -40 40 -40 11 0 40 29 40
40 0 11 -29 40 -40 40 -5 0 -16 -7 -24 -16z m44 -24 c0 -13 -7 -20 -20 -20
-13 0 -20 7 -20 20 0 13 7 20 20 20 13 0 20 -7 20 -20z"/>
<path d="M296 344 c-9 -8 -16 -19 -16 -24 0 -11 29 -40 40 -40 11 0 40 29 40
40 0 11 -29 40 -40 40 -5 0 -16 -7 -24 -16z m44 -24 c0 -13 -7 -20 -20 -20
-13 0 -20 7 -20 20 0 13 7 20 20 20 13 0 20 -7 20 -20z"/>
<path d="M130 320 c0 -5 7 -10 15 -10 8 0 15 5 15 10 0 6 -7 10 -15 10 -8 0
-15 -4 -15 -10z"/>
<path d="M480 320 c0 -5 7 -10 15 -10 8 0 15 5 15 10 0 6 -7 10 -15 10 -8 0
-15 -4 -15 -10z"/>
<path d="M196 284 c-9 -8 -16 -19 -16 -24 0 -11 29 -40 40 -40 11 0 40 29 40
40 0 5 -7 16 -16 24 -8 9 -19 16 -24 16 -5 0 -16 -7 -24 -16z m44 -24 c0 -13
-7 -20 -20 -20 -13 0 -20 7 -20 20 0 13 7 20 20 20 13 0 20 -7 20 -20z"/>
<path d="M396 284 c-9 -8 -16 -19 -16 -24 0 -11 29 -40 40 -40 11 0 40 29 40
40 0 11 -29 40 -40 40 -5 0 -16 -7 -24 -16z m44 -24 c0 -13 -7 -20 -20 -20
-13 0 -20 7 -20 20 0 13 7 20 20 20 13 0 20 -7 20 -20z"/>
<path d="M296 224 c-9 -8 -16 -19 -16 -24 0 -11 29 -40 40 -40 11 0 40 29 40
40 0 11 -29 40 -40 40 -5 0 -16 -7 -24 -16z m44 -24 c0 -13 -7 -20 -20 -20
-13 0 -20 7 -20 20 0 13 7 20 20 20 13 0 20 -7 20 -20z"/>
<path d="M226 175 c-3 -8 -1 -15 4 -15 6 0 10 7 10 15 0 8 -2 15 -4 15 -2 0
-6 -7 -10 -15z"/>
<path d="M396 175 c4 -8 10 -15 15 -15 4 0 6 7 3 15 -4 8 -10 15 -15 15 -4 0
-6 -7 -3 -15z"/>
</g>
</svg>
